<?xml version="1.0" encoding="UTF-8"?><svg xmlns="http://www.w3.org/2000/svg" xmlns:xlink="http://www.w3.org/1999/xlink" viewBox="0 0 500 500"><defs><style>.e{fill:#fff;}.f{fill:#1876a3;}.g{filter:url(#b);}.h{mix-blend-mode:soft-light;}.i{isolation:isolate;}</style><filter id="b" filterUnits="userSpaceOnUse"><feOffset dx="-6.42" dy="6.42"/><feGaussianBlur result="c" stdDeviation="5.14"/><feFlood flood-color="#000" flood-opacity=".5"/><feComposite in2="c" operator="in"/><feComposite in="SourceGraphic"/></filter></defs><g class="i"><g id="a"><rect class="f" x="0" y="-6.29" width="500" height="506.29"/><g class="h"><path class="e" d="M484.59,73.35c-13.6,11.59-26.44,22.54-40.09,32.67-20.28,15.05-41.7,24.49-63.68,28.06-22.46,3.65-45.64,1.18-68.88-7.34-32.12-11.78-63.63-26.83-94.11-41.39l-4.43-2.11c-25.08-11.97-49.52-17.96-73.15-17.96s-44.99,5.61-66.19,16.83c-18.66,9.87-35.82,23.37-52.41,36.42-7.15,5.63-14.55,11.44-21.97,16.89-1.19,.88-2.48,2.82-2.51,4.31-.17,9.91-.15,19.91-.13,30.51,0,3.01,0,6.09,.01,9.24,1.06-.78,2.01-1.46,2.88-2.09,1.99-1.43,3.55-2.56,5.04-3.79,5.36-4.44,10.7-8.9,16.04-13.36,8.2-6.85,16.68-13.94,25.1-20.83,46.36-37.94,96.62-46.35,149.37-25.02,20.97,8.48,41.88,18.13,62.09,27.47,11.83,5.46,24.07,11.11,36.19,16.47,50.26,22.2,98.91,18.91,144.6-9.77,15.2-9.54,29.5-21.12,43.32-32.32,5.8-4.7,11.8-9.56,17.79-14.2,1.67-1.29,3.36-3.27,3.4-4.78,.23-9.75,.2-19.59,.18-30,0-3.09-.02-6.24-.02-9.48-6.32,5.26-12.48,10.5-18.44,15.58Z"/><path class="e" d="M484.5,178.07c-13.46,11.56-26.17,22.48-39.67,32.52-40.47,30.09-85.38,37.76-129.86,22.18-27.37-9.58-54.19-22.19-80.12-34.39-9.4-4.42-19.13-9-28.74-13.36-22.62-10.27-44.78-15.4-66.32-15.4-24.14,0-47.51,6.44-69.94,19.32-17.33,9.95-33.44,22.73-49.01,35.09-6.62,5.25-13.46,10.68-20.31,15.83-1.57,1.18-3.25,3.28-3.29,4.87-.22,9.73-.2,19.6-.17,30.06,0,3.19,.02,6.46,.02,9.82,1.76-1.46,3.38-2.82,4.92-4.11,3.68-3.07,6.85-5.73,10.1-8.31,5.84-4.65,11.63-9.58,17.23-14.34,17.71-15.08,36.03-30.68,58.77-39.65,33.96-13.4,66.75-14.51,97.47-3.29,28.88,10.55,57.24,23.97,84.68,36.95,6.26,2.96,12.51,5.92,18.77,8.84,54.59,25.53,107.02,21.62,155.83-11.61,13.27-9.03,25.99-19.35,38.29-29.34,5.13-4.16,10.43-8.46,15.69-12.61,1.43-1.13,3.83-3.02,3.87-4.48,.25-9.98,.23-20.08,.2-30.78,0-3.08-.01-6.23-.02-9.47-6.33,5.3-12.46,10.56-18.39,15.66Z"/><path class="e" d="M486.48,228.64c-11.93,10.22-23.19,19.88-34.85,29.11-46.15,36.54-95.65,44.37-147.13,23.27-23.87-9.78-47.74-20.71-70.82-31.27-8.48-3.88-17.25-7.9-25.9-11.8-23.32-10.52-46.05-15.78-68.06-15.78-25.49,0-50,7.05-73.36,21.14-16.63,10.04-32.25,22.43-47.34,34.41-6.35,5.04-12.92,10.26-19.48,15.23-1.28,.97-2.38,2.98-2.4,4.39-.16,9.59-.14,19.03-.13,29.96,0,3.17,.01,6.44,.01,9.85,3.69-3.07,7.17-5.98,10.5-8.78,7.38-6.18,14.35-12.02,21.29-17.59,3.39-2.72,6.79-5.54,10.09-8.27,14.83-12.3,30.17-25.02,49.2-32.2,34.78-13.12,67.6-14.02,97.54-2.69,32.72,12.38,65.02,27.5,96.26,42.13l4.87,2.28c25.16,11.77,49.63,17.75,72.72,17.78,24.72,0,48.75-6.78,71.31-20.24,17.12-10.21,33.14-22.94,48.64-35.25,6.68-5.31,13.58-10.79,20.49-16,1.42-1.07,2.87-2.8,2.9-4.03,.19-9.83,.17-19.83,.15-30.41,0-3.02-.01-6.12-.01-9.3-5.68,4.8-11.17,9.51-16.5,14.07Z"/><path class="e" d="M-.14,344.92c-1.49,1.14-2.75,3.89-2.8,6.13-.21,8.89-.18,17.67-.16,27.84,0,3.36,.02,6.85,.02,10.52,5.72-4.74,11.23-9.3,16.59-13.73,11.74-9.72,22.84-18.9,33.86-28.09,22.54-18.81,48.72-30.65,75.72-34.24,27.35-3.63,55.84,1.19,82.4,13.95,36.26,17.42,69.25,32.09,100.87,44.87,36.54,14.76,74.76,13.41,113.58-4.02,22.61-10.15,41.78-25.98,60.33-41.29,6.57-5.42,13.36-11.03,20.21-16.31,1.15-.89,2.33-2.32,2.34-3.33,.14-10.24,.13-20.57,.12-31.51,0-2.84,0-5.73,0-8.69l-15.33,12.96c-10.8,9.13-21.08,17.83-31.36,26.53-44.66,37.82-92.66,48.01-142.65,30.27-26.73-9.48-52.87-22-78.16-34.11-6.35-3.04-12.92-6.18-19.38-9.23-26.23-12.34-51.71-18.65-75.75-18.76-.21,0-.41,0-.62,0-25.63,0-50.47,7.05-73.85,20.96-16.71,9.94-32.3,22.46-47.37,34.56-6.06,4.87-12.33,9.9-18.59,14.7Z"/><path class="e" d="M.09,397.1c-1.58,1.2-2.96,3.95-3.01,6.01-.22,9.17-.2,18.19-.17,28.64,0,3.36,.02,6.83,.02,10.47,6.03-5.09,11.85-10.08,17.48-14.91,12.58-10.78,24.46-20.97,36.79-30.62,43.26-33.84,89.48-41.73,137.39-23.47,28.16,10.74,55.96,23.8,82.85,36.44,4.93,2.32,9.85,4.63,14.79,6.93,20.19,9.43,39.11,14.99,57.84,17.02,25.2,2.73,50.91-1.77,76.42-13.37,22.92-10.42,42.27-26.64,60.97-42.33,6.19-5.19,12.6-10.57,19.04-15.65,1.17-.92,2.44-2.78,2.47-4.18,.16-9.61,.15-19.29,.13-29.55,0-2.92,0-5.91-.01-8.96-2.2,1.74-3.25,2.57-4.3,3.39-7.24,5.71-14.48,11.74-21.47,17.57-15.74,13.11-32.01,26.66-49.51,37.63-34.75,21.77-72.92,25.99-110.38,12.21-32.43-11.93-64.3-27.02-95.12-41.61l-6.05-2.86c-25.93-12.26-51.1-18.63-74.81-18.93-.58,0-1.17-.01-1.75-.01-24.97,0-49.17,6.73-71.97,20.01-17.09,9.95-32.97,22.66-48.33,34.95-6.29,5.03-12.8,10.24-19.31,15.19Z"/><path class="e" d="M484.43,124.11c-13.46,11.56-26.17,22.48-39.67,32.52-26.83,19.95-55.61,30.04-84.92,30.04-14.9,0-29.94-2.61-44.94-7.86-27.37-9.58-54.18-22.19-80.12-34.39-9.41-4.42-19.13-9-28.74-13.36-22.62-10.27-44.78-15.4-66.32-15.4-24.14,0-47.51,6.44-69.94,19.32-17.33,9.95-33.44,22.73-49.02,35.09-6.62,5.25-13.46,10.68-20.31,15.82-1.57,1.18-3.25,3.28-3.29,4.87-.22,9.73-.2,19.6-.17,30.06,0,3.19,.02,6.46,.02,9.82,1.76-1.46,3.39-2.83,4.94-4.12,3.67-3.07,6.84-5.72,10.08-8.29,5.84-4.65,11.64-9.58,17.24-14.35,17.71-15.08,36.03-30.67,58.76-39.65,33.96-13.4,66.75-14.51,97.47-3.29,28.87,10.55,57.24,23.97,84.67,36.95,6.26,2.96,12.51,5.92,18.78,8.85,54.59,25.53,107.02,21.62,155.83-11.62,13.27-9.03,25.99-19.36,38.29-29.34,5.12-4.16,10.42-8.46,15.69-12.61,1.43-1.13,3.83-3.02,3.87-4.48,.25-9.99,.23-20.09,.2-30.8,0-3.08-.01-6.22-.02-9.45-6.33,5.3-12.46,10.56-18.39,15.66Z"/></g><g id="d" class="g"><g><path class="e" d="M459.44,307.66c-39.45,18.77-78.91,37.5-118.3,56.37-2.73,1.31-4.22,.84-6.29-.95-19.08-16.47-38.25-32.85-57.4-49.25-12.09-10.36-24.56-11.54-38.5-3.64-7.84,4.45-15.63,8.97-23.49,13.38-5.85,3.28-11.59,2.2-14.56-2.61-3.21-5.2-1.32-11.65,4.6-14.53,13.09-6.37,26.23-12.63,39.43-18.79,8.07-3.76,16.45-3.92,25.05-1.49,13.17,3.72,26.4,7.28,39.64,10.76,7.12,1.87,13.82,1.72,20.8-1.83,41.55-21.12,83.28-41.89,124.96-62.77,1.31-.66,2.7-1.18,4.06-1.76v77.1Z"/><path class="e" d="M253.26,449.4c-2.59-1.99-5.18-3.98-7.85-6.03,3.5-3.92,6.7-7.51,9.95-11.15,10.47,5.56,11.9,11.89,3.62,17.18h-5.73Z"/><path class="e" d="M234.13,277.36c-12.31,5.87-23.79,11.23-35.15,16.81-11.56,5.68-16.52,16.86-12.91,28.49,4.38,14.14,20.74,20.94,34.36,13.94,8.74-4.49,17.13-9.61,25.68-14.45,8.56-4.84,14.44-4.31,21.85,2.02,18.76,16.05,37.5,32.12,56.25,48.18,.61,.52,1.23,1.02,1.82,1.57,3.77,3.52,4.35,7.42,1.61,10.73-2.73,3.29-8.18,3.88-12.15,1.06-3.38-2.4-6.55-5.08-9.79-7.66-8.8-6.98-17.58-13.97-26.39-20.94-.92-.73-1.9-1.38-3.12-2.27-3.06,3.49-5.98,6.84-9.14,10.44,10.15,8.06,20.07,15.93,29.99,23.8,2.41,1.91,4.88,3.75,7.22,5.74,3.71,3.15,4.41,7.16,1.93,10.33-2.46,3.14-7.53,3.95-11.44,1.75-1.05-.59-2-1.35-2.94-2.09-11.32-8.96-22.62-17.94-33.94-26.9-1.04-.82-2.13-1.58-3.32-2.47-3.07,3.54-6,6.91-9.12,10.49,11.75,9.34,23.25,18.48,34.75,27.62,.84,.67,1.71,1.29,2.51,2,3.47,3.06,4.25,6.55,2.21,9.71-2.03,3.14-6.37,4.32-10.49,2.63-1.72-.71-3.43-1.69-4.8-2.9-6.16-5.43-12.28-10.91-18.25-16.53-4.42-4.17-9.57-6.74-15.65-7.18-2.65-12.85-8.54-18.48-21.73-20.7-.27-1.34-.45-2.86-.9-4.3-2.68-8.57-8.49-14.04-17.84-15.69-2.17-.38-3.1-.97-3.53-3.26-3.13-16.73-23.46-23.6-36.87-12.39-5.51,4.61-10.42,9.87-15.91,15.12-6.87-3.93-13.79-7.76-20.49-11.89-.78-.48-.93-2.73-.57-3.95,5.1-17.34,10.82-34.53,15.32-52.01,1.93-7.49,5.45-10.72,13.4-11.96,15.03-2.36,29.78-6.24,44.79-8.75,14.43-2.42,28.33,.6,42.75,5.86Z"/><path class="e" d="M264.48,227.89c13.75,3.29,26.96,6.4,40.14,9.61,11.43,2.79,17.4,10.09,17.52,21.35,.08,7.26-.11,14.53,.07,21.79,.07,3-1.2,4.04-4.1,3.69-1.61-.19-3.24-.33-4.8-.74-15.22-3.97-30.43-7.97-45.63-11.99-11.11-2.93-22.34-5.52-33.28-8.93-17.86-5.58-35.83-7.47-54.29-3.38-.52,.12-1.08,.08-1.61,.12-2.29-8.45,4.23-18.4,14.58-21.2,12.42-3.37,25.03-6.13,37.56-9.16,1.44-.35,2.88-.71,4.8-1.19,0-6.8,.08-13.65-.1-20.49-.02-.85-1.18-1.96-2.1-2.47-13.64-7.63-20-18.99-19.3-33.96,.29-6.33-.17-12.88,1.4-18.93,4.14-15.87,19.7-26.59,35.87-25.72,16.62,.89,31.25,12.82,33.84,28.82,1.27,7.86,1.37,16.11,.49,24.03-1.24,11.22-7.89,19.7-18.23,25.31-2.2,1.2-2.98,2.55-2.91,4.91,.17,6.08,.06,12.16,.06,18.52Z"/><path class="e" d="M380.02,227.88c11.98,2.86,23.42,5.59,36,8.6-26.84,13.45-52.75,26.44-79.86,40.02,0-8.31,.3-15.66-.08-22.97-.39-7.5-4.28-13.77-9.75-19.7,7.03-1.69,13.42-3.52,19.93-4.69,4.06-.73,5.52-2.46,4.91-6.2-.19-1.14-.14-2.34-.01-3.5,.92-8.03-.17-14.47-8.84-19.29-7.57-4.21-11.4-12.21-12.32-20.68-1.08-9.93-1.74-19.94,1.46-29.7,4.26-13.01,16.64-22.08,31.63-23.32,13.14-1.09,27.43,6.18,33.26,17.85,2.57,5.14,4.18,10.96,4.88,16.62,.78,6.25,.72,12.78-.23,19.01-1.67,10.88-8.09,19.11-18.17,24.54-2.21,1.19-2.95,2.54-2.88,4.9,.18,6.08,.06,12.16,.06,18.49Z"/><path class="e" d="M103.79,231.81c5.84-1.43,10.77-2.64,16.13-3.95,0-6.83,.08-13.68-.1-20.53-.02-.84-1.21-1.91-2.14-2.43-13.51-7.53-19.95-18.77-19.26-33.58,.33-7.08,.2-14.38,2.02-21.16,3.58-13.39,16.42-22.45,31.58-23.7,13.25-1.09,27.5,6.38,33.56,18.15,7.08,13.75,6.79,28.16,2.24,42.41-2.4,7.52-8.12,13.2-15.4,17.03-2.96,1.56-3.87,3.44-3.69,6.49,.26,4.53,.28,9.09,.04,13.62-.15,2.86,.84,4.12,3.81,4.73,6.87,1.42,13.66,3.17,20.35,4.75-2.52,4.22-5.48,7.92-7.02,12.09-1.59,4.32-2.19,9.07-2.48,13.68-.18,2.78-.99,3.76-3.78,4.25-6.01,1.05-11.94,2.46-18.06,3.76,0-4.02-.16-7.73,.06-11.42,.14-2.26-.64-3.5-2.71-4.62-10.3-5.58-20.5-11.31-30.73-17-1.25-.69-2.46-1.44-4.42-2.58Z"/><path class="e" d="M198.94,167.35c-.35,13.99,2.61,26.91,12.39,37.79,2.46,2.74,5.54,4.98,8.16,7.6,.83,.83,1.56,2.19,1.48,3.25-.05,.67-1.6,1.53-2.62,1.78-7.9,1.97-15.81,3.89-23.77,5.65-1.64,.36-3.54,.29-5.19-.08-7.69-1.71-15.34-3.55-22.97-5.47-1.13-.28-2.89-1.22-2.92-1.9-.04-1.16,.77-2.71,1.75-3.47,13.58-10.41,19.77-24.02,19.82-40.45,.03-10.55-.07-21.02-4.96-30.86-.44-.89,.07-2.51,.66-3.5,17.71-29.74,52.15-44.34,87.34-36.65,22.57,4.94,39.45,17.51,50.99,36.54,.68,1.13,.25,3.12-.18,4.57-6.01,19.8-7.25,39.38,4.18,57.89,2.83,4.58,7.55,8.08,11.29,12.16,.97,1.06,2.02,2.45,2.07,3.73,.03,.64-2.08,1.38-3.24,2.04-.22,.12-.53,.09-.8,.15-8.33,1.91-16.66,5.33-24.98,5.31-8.33-.02-16.67-3.43-24.97-5.47-1.3-.32-3.42-1.28-3.41-1.93,.01-1.28,.94-2.91,2.03-3.76,13.23-10.31,19.41-23.66,19.54-39.8,.09-10.68-.06-21.26-4.94-31.25-9.6-19.69-29.63-30.55-52.45-28.26-20.35,2.05-38.08,17.55-42.6,37.76-1.21,5.41-1.17,11.06-1.71,16.6Z"/><path class="e" d="M71.28,344.21c-9.57-3.04-18.89-5.92-28.12-9.03-1.12-.38-2.52-2.02-2.52-3.09-.12-40.62-.09-81.24-.07-121.86,0-.22,.19-.44,.43-.93,.93,.51,1.86,.95,2.73,1.49,17.09,10.66,34.17,21.35,51.28,31.98,1.72,1.07,2.75,1.9,2.12,4.26-8.46,31.77-16.78,63.58-25.14,95.37-.13,.49-.37,.96-.71,1.81Z"/><path class="e" d="M330.77,76.25c7.28,6.95,14.44,13.7,21.45,20.59,.7,.69,1.02,2.39,.65,3.3-2.02,4.95-4.25,9.82-6.57,14.65-.46,.96-1.47,1.8-2.43,2.41-4.75,2.99-9.56,5.87-14.75,9.04-18.77-26.16-45.26-41.05-79.22-41.01-34.03,.04-60.49,14.97-79.29,41.45-5.24-3.29-10.34-6.44-15.36-9.71-.82-.53-1.41-1.54-1.82-2.44-2.12-4.63-4.26-9.26-6.13-13.98-.42-1.05-.29-2.94,.44-3.66,6.99-6.91,14.16-13.66,21.47-20.63,6.07,3.75,12.03,7.31,17.85,11.09,1.87,1.22,3.18,1.16,5.07,.04,10.57-6.32,21.95-10.88,34.15-13.47,2.12-.45,3.13-1.36,3.53-3.52,1.07-5.74,2.63-11.39,3.73-17.12,.42-2.17,1.41-2.68,3.54-2.66,8.59,.09,17.18,.12,25.76-.01,2.45-.04,3.24,.81,3.66,3.01,1.08,5.6,2.61,11.13,3.68,16.74,.4,2.13,1.33,3.11,3.49,3.56,12.35,2.6,23.76,7.35,34.6,13.51,1.11,.63,3.37,.49,4.54-.18,5.94-3.41,11.7-7.11,17.98-11Z"/><path class="e" d="M99.99,353.25c-4.97-1.56-9.58-3.01-14.7-4.61,8.46-32.2,16.87-64.24,25.45-96.92,5.5,3.05,10.6,5.68,15.38,8.75,.82,.53,.77,3.05,.35,4.45-7.45,25.16-15.01,50.28-22.55,75.41-1.26,4.2-2.55,8.39-3.93,12.92Z"/><path class="e" d="M200.37,380.92c-1.65,2.75-2.51,4.98-4.06,6.61-3.55,3.74-7.36,7.26-11.2,10.74-3.98,3.6-8.69,3.83-12.01,.78-3.48-3.2-3.3-7.78,.67-11.71,3.86-3.82,7.81-7.57,11.87-11.21,2.58-2.31,5.91-3.33,8.96-1.41,2.25,1.42,3.74,3.93,5.77,6.19Z"/><path class="e" d="M199.45,422.34c-1.86-1.38-4.88-2.57-5.89-4.65-1.01-2.08-1.1-5.88,.27-7.47,4.46-5.16,9.59-9.86,14.84-14.34,2.82-2.4,7.46-1.63,10.03,.88,2.5,2.43,3.37,6.66,.98,9.22-4.77,5.1-10,9.83-15.2,14.55-.98,.89-2.71,1.01-5.02,1.81Z"/><path class="e" d="M243.71,422.29c-1.68,2.72-2.58,4.93-4.14,6.57-3.56,3.73-7.36,7.26-11.21,10.74-3.97,3.59-8.71,3.76-12.01,.66-3.32-3.12-3.21-7.68,.54-11.43,3.94-3.93,8-7.76,12.15-11.48,2.59-2.32,5.96-3.25,8.97-1.31,2.23,1.44,3.69,3.98,5.69,6.26Z"/><path class="e" d="M148.05,373.45c1.53-2.65,2.28-4.81,3.75-6.34,3.65-3.83,7.56-7.45,11.49-11.03,3.9-3.54,8.76-3.71,12.01-.62,3.28,3.12,3.18,7.7-.56,11.42-4.04,4.02-8.23,7.91-12.49,11.71-2.52,2.24-5.88,2.84-8.65,1.08-2.24-1.42-3.65-4.02-5.55-6.23Z"/></g></g></g></g></svg>